<svg class="diagram-root" style="background: rgb(245, 246, 246); --darkreader-inline-bgcolor: #2a2a26; --darkreader-inline-bgimage: none;" xmlns="http://www.w3.org/2000/svg" xmlns:xlink="http://www.w3.org/1999/xlink" data-darkreader-inline-bgcolor="" data-darkreader-inline-bgimage=""><style>.diagram-root { font-family: "Helvetica Neue", sans-serif; font-size: 12px; } .t { overflow: visible; } .t-bg { y: 40; fill: #fff;   } .th { fill: #005aa0;   } .tht { fill: #fff; font-size: 14px;  } .tf { fill: #323c46; overflow: visible; } .tf.pk { fill: #005aa0; font-weight: bold; } .tf.fk { font-weight: bold; } .ty { fill: #adb1b5; font-weight: normal; text-anchor: end; } .r { fill: transparent; stroke: #c3c3c3; stroke-width: 1; } .l { stroke: 1; } .i { fill: #c2c7ce; stroke: #c2c7ce; } .i.ix { fill: #afb3b6; stroke: #000; } .fa { fill: transparent; overflow: visible; } .fa .bg.hover { fill: #f7f7f7; } .c { cy: 12; r: 4; stroke: #d2d2dc; fill: #d2d2dc; } .hr { fill: transparent; stroke: #323c46; stroke-opacity: 0.035; stroke-width: 13; } .dc { stroke: #fa5a3c; fill: #fa5a3c; } .x { stroke: white; stroke-width: 1; } .hl .th { fill: #1b9bff; } .hl .tht {  } .fhl .bg { fill: #e7f4ff; } .fhls .bg {  } .r.hl { stroke: #1b9bff; } .dim { opacity: 0.25; }</style><style class="darkreader darkreader--sync" media="screen"></style><g class="drawing-wrapper" transform="translate(314.93, 128.72333333333341) scale(1,1)"><g class="rs"><path d="M 394.21 24.340000000000003 m -1, 0 a 1,1 0 1,0 2,0 a 1,1 0 1,0 -2,0 M 394.21 24.340000000000003 m -0.5, 0 a 0.5,0.5 0 1,0 1,0 a 0.5,0.5 0 1,0 -1,0  M394.21 24.340000000000003 L394.21 24.340000000000003 406.21 24.340000000000003 M400.21 30.340000000000003 L400.21 30.340000000000003 400.21 18.340000000000003 M406.21 24.340000000000003 Q 433.13 24.340000000000003, 460.05 103.03 T 513.9 181.70999999999998 M 525.9 181.70999999999998 m -1, 0 a 1,1 0 1,0 2,0 a 1,1 0 1,0 -2,0 M 525.9 181.70999999999998 m -0.5, 0 a 0.5,0.5 0 1,0 1,0 a 0.5,0.5 0 1,0 -1,0  M525.9 181.70999999999998 L525.9 181.70999999999998 513.9 181.70999999999998 M519.9 187.70999999999998 L519.9 187.70999999999998 519.9 175.70999999999998" id="h3559516620" class="r"></path><path d="M 279.21 49.34 m -1, 0 a 1,1 0 1,0 2,0 a 1,1 0 1,0 -2,0 M 279.21 49.34 m -0.5, 0 a 0.5,0.5 0 1,0 1,0 a 0.5,0.5 0 1,0 -1,0  M279.21 49.34 L279.21 49.34 267.21 49.34 M 279.21 55.34 m -1, 0 a 1,1 0 1,0 2,0 a 1,1 0 1,0 -2,0 M 279.21 55.34 m -0.5, 0 a 0.5,0.5 0 1,0 1,0 a 0.5,0.5 0 1,0 -1,0  M279.21 55.34 L279.21 55.34 272.21 49.34 279.21 43.34 M 279.21 43.34 m -1, 0 a 1,1 0 1,0 2,0 a 1,1 0 1,0 -2,0 M 279.21 43.34 m -0.5, 0 a 0.5,0.5 0 1,0 1,0 a 0.5,0.5 0 1,0 -1,0  M267.21 49.34 Q 201.27 49.34, 135.33 3.81 T 3.460000000000001 -41.7233333333334 M -8.54 -41.7233333333334 m -1, 0 a 1,1 0 1,0 2,0 a 1,1 0 1,0 -2,0 M -8.54 -41.7233333333334 m -0.5, 0 a 0.5,0.5 0 1,0 1,0 a 0.5,0.5 0 1,0 -1,0  M-8.54 -41.7233333333334 L-8.54 -41.7233333333334 3.460000000000001 -41.7233333333334 M -8.54 -35.7233333333334 m -1, 0 a 1,1 0 1,0 2,0 a 1,1 0 1,0 -2,0 M -8.54 -35.7233333333334 m -0.5, 0 a 0.5,0.5 0 1,0 1,0 a 0.5,0.5 0 1,0 -1,0  M-8.54 -35.7233333333334 L-8.54 -35.7233333333334 -1.5399999999999991 -41.7233333333334 -8.54 -47.7233333333334 M -8.54 -47.7233333333334 m -1, 0 a 1,1 0 1,0 2,0 a 1,1 0 1,0 -2,0 M -8.54 -47.7233333333334 m -0.5, 0 a 0.5,0.5 0 1,0 1,0 a 0.5,0.5 0 1,0 -1,0 " id="h941988991" class="r"></path><path d="M 391.29 323.96000000000004 m -1, 0 a 1,1 0 1,0 2,0 a 1,1 0 1,0 -2,0 M 391.29 323.96000000000004 m -0.5, 0 a 0.5,0.5 0 1,0 1,0 a 0.5,0.5 0 1,0 -1,0  M391.29 323.96000000000004 L391.29 323.96000000000004 403.29 323.96000000000004 M397.29 329.96000000000004 L397.29 329.96000000000004 397.29 317.96000000000004 M403.29 323.96000000000004 Q 430.95 323.96000000000004, 458.6 252.84 T 513.9 181.70999999999998 M 525.9 181.70999999999998 m -1, 0 a 1,1 0 1,0 2,0 a 1,1 0 1,0 -2,0 M 525.9 181.70999999999998 m -0.5, 0 a 0.5,0.5 0 1,0 1,0 a 0.5,0.5 0 1,0 -1,0  M525.9 181.70999999999998 L525.9 181.70999999999998 513.9 181.70999999999998 M519.9 187.70999999999998 L519.9 187.70999999999998 519.9 175.70999999999998" id="h1780268277" class="r"></path><path d="M 394.1 188.89 m -1, 0 a 1,1 0 1,0 2,0 a 1,1 0 1,0 -2,0 M 394.1 188.89 m -0.5, 0 a 0.5,0.5 0 1,0 1,0 a 0.5,0.5 0 1,0 -1,0  M394.1 188.89 L394.1 188.89 406.1 188.89 M400.1 194.89 L400.1 194.89 400.1 182.89 M406.1 188.89 Q 433.05 188.89, 460 185.3 T 513.9 181.70999999999998 M 525.9 181.70999999999998 m -1, 0 a 1,1 0 1,0 2,0 a 1,1 0 1,0 -2,0 M 525.9 181.70999999999998 m -0.5, 0 a 0.5,0.5 0 1,0 1,0 a 0.5,0.5 0 1,0 -1,0  M525.9 181.70999999999998 L525.9 181.70999999999998 513.9 181.70999999999998 M519.9 187.70999999999998 L519.9 187.70999999999998 519.9 175.70999999999998" id="h4225314031" class="r"></path><path d="M 7.88 273.62 m -1, 0 a 1,1 0 1,0 2,0 a 1,1 0 1,0 -2,0 M 7.88 273.62 m -0.5, 0 a 0.5,0.5 0 1,0 1,0 a 0.5,0.5 0 1,0 -1,0  M7.88 273.62 L7.88 273.62 19.88 273.62 M 7.88 279.62 m -1, 0 a 1,1 0 1,0 2,0 a 1,1 0 1,0 -2,0 M 7.88 279.62 m -0.5, 0 a 0.5,0.5 0 1,0 1,0 a 0.5,0.5 0 1,0 -1,0  M7.88 279.62 L7.88 279.62 14.879999999999999 273.62 7.88 267.62 M 7.88 267.62 m -1, 0 a 1,1 0 1,0 2,0 a 1,1 0 1,0 -2,0 M 7.88 267.62 m -0.5, 0 a 0.5,0.5 0 1,0 1,0 a 0.5,0.5 0 1,0 -1,0  M19.88 273.62 Q 80.99 273.62, 142.09 286.29 T 264.29 298.96000000000004 M 276.29 298.96000000000004 m -1, 0 a 1,1 0 1,0 2,0 a 1,1 0 1,0 -2,0 M 276.29 298.96000000000004 m -0.5, 0 a 0.5,0.5 0 1,0 1,0 a 0.5,0.5 0 1,0 -1,0  M276.29 298.96000000000004 L276.29 298.96000000000004 264.29 298.96000000000004 M270.29 304.96000000000004 L270.29 304.96000000000004 270.29 292.96000000000004" id="h407655251" class="r"></path><path d="M 7.88 298.62 m -1, 0 a 1,1 0 1,0 2,0 a 1,1 0 1,0 -2,0 M 7.88 298.62 m -0.5, 0 a 0.5,0.5 0 1,0 1,0 a 0.5,0.5 0 1,0 -1,0  M7.88 298.62 L7.88 298.62 19.88 298.62 M 7.88 304.62 m -1, 0 a 1,1 0 1,0 2,0 a 1,1 0 1,0 -2,0 M 7.88 304.62 m -0.5, 0 a 0.5,0.5 0 1,0 1,0 a 0.5,0.5 0 1,0 -1,0  M7.88 304.62 L7.88 304.62 14.879999999999999 298.62 7.88 292.62 M 7.88 292.62 m -1, 0 a 1,1 0 1,0 2,0 a 1,1 0 1,0 -2,0 M 7.88 292.62 m -0.5, 0 a 0.5,0.5 0 1,0 1,0 a 0.5,0.5 0 1,0 -1,0  M19.88 298.62 Q 81.71 298.62, 143.54 148.98 T 267.21 -0.6599999999999966 M 279.21 -0.6599999999999966 m -1, 0 a 1,1 0 1,0 2,0 a 1,1 0 1,0 -2,0 M 279.21 -0.6599999999999966 m -0.5, 0 a 0.5,0.5 0 1,0 1,0 a 0.5,0.5 0 1,0 -1,0  M279.21 -0.6599999999999966 L279.21 -0.6599999999999966 267.21 -0.6599999999999966 M 279.21 5.340000000000003 m -1, 0 a 1,1 0 1,0 2,0 a 1,1 0 1,0 -2,0 M 279.21 5.340000000000003 m -0.5, 0 a 0.5,0.5 0 1,0 1,0 a 0.5,0.5 0 1,0 -1,0  M279.21 5.340000000000003 L279.21 5.340000000000003 272.21 -0.6599999999999966 279.21 -6.659999999999997 M 279.21 -6.659999999999997 m -1, 0 a 1,1 0 1,0 2,0 a 1,1 0 1,0 -2,0 M 279.21 -6.659999999999997 m -0.5, 0 a 0.5,0.5 0 1,0 1,0 a 0.5,0.5 0 1,0 -1,0 " id="h2870361245" class="r"></path><path d="M -201.93 344.42 m -1, 0 a 1,1 0 1,0 2,0 a 1,1 0 1,0 -2,0 M -201.93 344.42 m -0.5, 0 a 0.5,0.5 0 1,0 1,0 a 0.5,0.5 0 1,0 -1,0  M-201.93 344.42 L-201.93 344.42 -189.93 344.42 M -201.93 350.42 m -1, 0 a 1,1 0 1,0 2,0 a 1,1 0 1,0 -2,0 M -201.93 350.42 m -0.5, 0 a 0.5,0.5 0 1,0 1,0 a 0.5,0.5 0 1,0 -1,0  M-201.93 350.42 L-201.93 350.42 -194.93 344.42 -201.93 338.42 M -201.93 338.42 m -1, 0 a 1,1 0 1,0 2,0 a 1,1 0 1,0 -2,0 M -201.93 338.42 m -0.5, 0 a 0.5,0.5 0 1,0 1,0 a 0.5,0.5 0 1,0 -1,0  M-189.93 344.42 Q -173.98 344.42, -158.02 334.02 T -126.12 323.62 M -114.12 323.62 m -1, 0 a 1,1 0 1,0 2,0 a 1,1 0 1,0 -2,0 M -114.12 323.62 m -0.5, 0 a 0.5,0.5 0 1,0 1,0 a 0.5,0.5 0 1,0 -1,0  M-114.12 323.62 L-114.12 323.62 -126.12 323.62 M -114.12 329.62 m -1, 0 a 1,1 0 1,0 2,0 a 1,1 0 1,0 -2,0 M -114.12 329.62 m -0.5, 0 a 0.5,0.5 0 1,0 1,0 a 0.5,0.5 0 1,0 -1,0  M-114.12 329.62 L-114.12 329.62 -121.12 323.62 -114.12 317.62 M -114.12 317.62 m -1, 0 a 1,1 0 1,0 2,0 a 1,1 0 1,0 -2,0 M -114.12 317.62 m -0.5, 0 a 0.5,0.5 0 1,0 1,0 a 0.5,0.5 0 1,0 -1,0 " id="h2493978894" class="r"></path><path d="M -7.37 81.23 m -1, 0 a 1,1 0 1,0 2,0 a 1,1 0 1,0 -2,0 M -7.37 81.23 m -0.5, 0 a 0.5,0.5 0 1,0 1,0 a 0.5,0.5 0 1,0 -1,0  M-7.37 81.23 L-7.37 81.23 4.63 81.23 M -7.37 87.23 m -1, 0 a 1,1 0 1,0 2,0 a 1,1 0 1,0 -2,0 M -7.37 87.23 m -0.5, 0 a 0.5,0.5 0 1,0 1,0 a 0.5,0.5 0 1,0 -1,0  M-7.37 87.23 L-7.37 87.23 -0.3700000000000001 81.23 -7.37 75.23 M -7.37 75.23 m -1, 0 a 1,1 0 1,0 2,0 a 1,1 0 1,0 -2,0 M -7.37 75.23 m -0.5, 0 a 0.5,0.5 0 1,0 1,0 a 0.5,0.5 0 1,0 -1,0  M4.63 81.23 Q 70.27 81.23, 135.92 40.29 T 267.21 -0.6599999999999966 M 279.21 -0.6599999999999966 m -1, 0 a 1,1 0 1,0 2,0 a 1,1 0 1,0 -2,0 M 279.21 -0.6599999999999966 m -0.5, 0 a 0.5,0.5 0 1,0 1,0 a 0.5,0.5 0 1,0 -1,0  M279.21 -0.6599999999999966 L279.21 -0.6599999999999966 267.21 -0.6599999999999966 M 279.21 5.340000000000003 m -1, 0 a 1,1 0 1,0 2,0 a 1,1 0 1,0 -2,0 M 279.21 5.340000000000003 m -0.5, 0 a 0.5,0.5 0 1,0 1,0 a 0.5,0.5 0 1,0 -1,0  M279.21 5.340000000000003 L279.21 5.340000000000003 272.21 -0.6599999999999966 279.21 -6.659999999999997 M 279.21 -6.659999999999997 m -1, 0 a 1,1 0 1,0 2,0 a 1,1 0 1,0 -2,0 M 279.21 -6.659999999999997 m -0.5, 0 a 0.5,0.5 0 1,0 1,0 a 0.5,0.5 0 1,0 -1,0 " id="h3038993522" class="r"></path><path d="M -7.37 106.23 m -1, 0 a 1,1 0 1,0 2,0 a 1,1 0 1,0 -2,0 M -7.37 106.23 m -0.5, 0 a 0.5,0.5 0 1,0 1,0 a 0.5,0.5 0 1,0 -1,0  M-7.37 106.23 L-7.37 106.23 4.63 106.23 M -7.37 112.23 m -1, 0 a 1,1 0 1,0 2,0 a 1,1 0 1,0 -2,0 M -7.37 112.23 m -0.5, 0 a 0.5,0.5 0 1,0 1,0 a 0.5,0.5 0 1,0 -1,0  M-7.37 112.23 L-7.37 112.23 -0.3700000000000001 106.23 -7.37 100.23 M -7.37 100.23 m -1, 0 a 1,1 0 1,0 2,0 a 1,1 0 1,0 -2,0 M -7.37 100.23 m -0.5, 0 a 0.5,0.5 0 1,0 1,0 a 0.5,0.5 0 1,0 -1,0  M4.63 106.23 Q 70.25 106.23, 135.87 135.06 T 267.1 163.89 M 279.1 163.89 m -1, 0 a 1,1 0 1,0 2,0 a 1,1 0 1,0 -2,0 M 279.1 163.89 m -0.5, 0 a 0.5,0.5 0 1,0 1,0 a 0.5,0.5 0 1,0 -1,0  M279.1 163.89 L279.1 163.89 267.1 163.89 M273.1 169.89 L273.1 169.89 273.1 157.89" id="h1573318561" class="r"></path><path d="M -107.37 131.23000000000002 m -1, 0 a 1,1 0 1,0 2,0 a 1,1 0 1,0 -2,0 M -107.37 131.23000000000002 m -0.5, 0 a 0.5,0.5 0 1,0 1,0 a 0.5,0.5 0 1,0 -1,0  M-107.37 131.23000000000002 L-107.37 131.23000000000002 -119.37 131.23000000000002 M -107.37 137.23000000000002 m -1, 0 a 1,1 0 1,0 2,0 a 1,1 0 1,0 -2,0 M -107.37 137.23000000000002 m -0.5, 0 a 0.5,0.5 0 1,0 1,0 a 0.5,0.5 0 1,0 -1,0  M-107.37 137.23000000000002 L-107.37 137.23000000000002 -114.37 131.23000000000002 -107.37 125.23000000000002 M -107.37 125.23000000000002 m -1, 0 a 1,1 0 1,0 2,0 a 1,1 0 1,0 -2,0 M -107.37 125.23000000000002 m -0.5, 0 a 0.5,0.5 0 1,0 1,0 a 0.5,0.5 0 1,0 -1,0  M-119.37 131.23000000000002 C -177.6866340465222 131.23000000000002, -173.63663404652218 273.62, -126.12 273.62 M -114.12 273.62 m -1, 0 a 1,1 0 1,0 2,0 a 1,1 0 1,0 -2,0 M -114.12 273.62 m -0.5, 0 a 0.5,0.5 0 1,0 1,0 a 0.5,0.5 0 1,0 -1,0  M-114.12 273.62 L-114.12 273.62 -126.12 273.62 M -114.12 279.62 m -1, 0 a 1,1 0 1,0 2,0 a 1,1 0 1,0 -2,0 M -114.12 279.62 m -0.5, 0 a 0.5,0.5 0 1,0 1,0 a 0.5,0.5 0 1,0 -1,0  M-114.12 279.62 L-114.12 279.62 -121.12 273.62 -114.12 267.62 M -114.12 267.62 m -1, 0 a 1,1 0 1,0 2,0 a 1,1 0 1,0 -2,0 M -114.12 267.62 m -0.5, 0 a 0.5,0.5 0 1,0 1,0 a 0.5,0.5 0 1,0 -1,0 " id="h1245153620" class="r"></path></g><g class="hrs"></g><g class="ts"><svg width="91" height="75" x="525.9" y="124.71" id="h1750054002" class="t"><rect height="40" width="91" class="th"></rect><text x="13" y="25" class="tht">BaseUser</text><rect height="35" width="91" class="t-bg" y="40"></rect><text x="13" y="61" class="tf pk">ID<tspan x="78" class="ty">int</tspan></text><path d="M7,14A2,2 0 0,1 5,12A2,2 0 0,1 7,10A2,2 0 0,1 9,12A2,2 0 0,1 7,14M12.65,10C11.83,7.67 9.61,6 7, 6A6, 6 0 0, 0 1, 12A6, 6 0 0, 0 7, 18C9.61, 18 11.83, 16.33 12.65, 14H17V18H21V14H23V10H12.65Z" class="i pk" transform="translate(45, 48) scale(0.65)"></path></svg><svg width="115" height="125" x="279.21" y="-57.66" id="h1526749707" class="t"><rect height="40" width="115" class="th"></rect><text x="13" y="25" class="tht">Volunteer</text><rect height="85" width="115" class="t-bg" y="40"></rect><text x="13" y="61" class="tf pk">ID<tspan x="102" class="ty">int</tspan></text><path d="M7,14A2,2 0 0,1 5,12A2,2 0 0,1 7,10A2,2 0 0,1 9,12A2,2 0 0,1 7,14M12.65,10C11.83,7.67 9.61,6 7, 6A6, 6 0 0, 0 1, 12A6, 6 0 0, 0 7, 18C9.61, 18 11.83, 16.33 12.65, 14H17V18H21V14H23V10H12.65Z" class="i pk" transform="translate(69, 48) scale(0.65)"></path><text x="13" y="86" class="tf fk">BaseUser<tspan x="102" class="ty">int</tspan></text><text x="13" y="111" class="tf fk">Benefits</text></svg><svg width="115" height="100" x="276.29" y="241.96" id="h3893688409" class="t"><rect height="40" width="115" class="th"></rect><text x="13" y="25" class="tht">Organization</text><rect height="60" width="115" class="t-bg" y="40"></rect><text x="13" y="61" class="tf pk">ID<tspan x="102" class="ty">int</tspan></text><path d="M7,14A2,2 0 0,1 5,12A2,2 0 0,1 7,10A2,2 0 0,1 9,12A2,2 0 0,1 7,14M12.65,10C11.83,7.67 9.61,6 7, 6A6, 6 0 0, 0 1, 12A6, 6 0 0, 0 7, 18C9.61, 18 11.83, 16.33 12.65, 14H17V18H21V14H23V10H12.65Z" class="i pk" transform="translate(69, 48) scale(0.65)"></path><text x="13" y="86" class="tf fk">BaseUser<tspan x="102" class="ty">int</tspan></text></svg><svg width="115" height="100" x="279.1" y="106.89" id="h3848706737" class="t"><rect height="40" width="115" class="th"></rect><text x="13" y="25" class="tht">Validator</text><rect height="60" width="115" class="t-bg" y="40"></rect><text x="13" y="61" class="tf pk">ID<tspan x="102" class="ty">int</tspan></text><path d="M7,14A2,2 0 0,1 5,12A2,2 0 0,1 7,10A2,2 0 0,1 9,12A2,2 0 0,1 7,14M12.65,10C11.83,7.67 9.61,6 7, 6A6, 6 0 0, 0 1, 12A6, 6 0 0, 0 7, 18C9.61, 18 11.83, 16.33 12.65, 14H17V18H21V14H23V10H12.65Z" class="i pk" transform="translate(69, 48) scale(0.65)"></path><text x="13" y="86" class="tf fk">BaseUser<tspan x="102" class="ty">int</tspan></text></svg><svg width="122" height="175" x="-114.12" y="191.62" id="h2880153774" class="t"><rect height="40" width="122" class="th"></rect><text x="13" y="25" class="tht">Task</text><rect height="135" width="122" class="t-bg" y="40"></rect><text x="13" y="61" class="tf">...</text><text x="13" y="86" class="tf pk">ID<tspan x="109" class="ty">int</tspan></text><path d="M7,14A2,2 0 0,1 5,12A2,2 0 0,1 7,10A2,2 0 0,1 9,12A2,2 0 0,1 7,14M12.65,10C11.83,7.67 9.61,6 7, 6A6, 6 0 0, 0 1, 12A6, 6 0 0, 0 7, 18C9.61, 18 11.83, 16.33 12.65, 14H17V18H21V14H23V10H12.65Z" class="i pk" transform="translate(76, 73) scale(0.65)"></path><text x="13" y="111" class="tf fk">Organizantion</text><text x="13" y="136" class="tf fk">Volunteers</text><text x="13" y="161" class="tf fk">Tags</text></svg><svg width="100" height="150" x="-107.37" y="-0.77" id="h2618827946" class="t"><rect height="40" width="100" class="th"></rect><text x="13" y="25" class="tht">Transaction</text><rect height="110" width="100" class="t-bg" y="40"></rect><text x="13" y="61" class="tf pk">ID<tspan x="87" class="ty">int</tspan></text><path d="M7,14A2,2 0 0,1 5,12A2,2 0 0,1 7,10A2,2 0 0,1 9,12A2,2 0 0,1 7,14M12.65,10C11.83,7.67 9.61,6 7, 6A6, 6 0 0, 0 1, 12A6, 6 0 0, 0 7, 18C9.61, 18 11.83, 16.33 12.65, 14H17V18H21V14H23V10H12.65Z" class="i pk" transform="translate(54, 48) scale(0.65)"></path><text x="13" y="86" class="tf fk">Target</text><text x="13" y="111" class="tf fk">Validator</text><text x="13" y="136" class="tf fk">Task</text></svg><svg width="91" height="75" x="-99.54333333333328" y="-98.7233333333334" id="h2414272857" class="t"><rect height="40" width="91" class="th"></rect><text x="13" y="25" class="tht">Benefit</text><rect height="35" width="91" class="t-bg" y="40"></rect><text x="13" y="61" class="tf pk">ID<tspan x="78" class="ty">int</tspan></text><path d="M7,14A2,2 0 0,1 5,12A2,2 0 0,1 7,10A2,2 0 0,1 9,12A2,2 0 0,1 7,14M12.65,10C11.83,7.67 9.61,6 7, 6A6, 6 0 0, 0 1, 12A6, 6 0 0, 0 7, 18C9.61, 18 11.83, 16.33 12.65, 14H17V18H21V14H23V10H12.65Z" class="i pk" transform="translate(45, 48) scale(0.65)"></path></svg><svg width="91" height="75" x="-292.93" y="287.42" id="h3770079083" class="t"><rect height="40" width="91" class="th"></rect><text x="13" y="25" class="tht">Tag</text><rect height="35" width="91" class="t-bg" y="40"></rect><text x="13" y="61" class="tf pk">ID<tspan x="78" class="ty">int</tspan></text><path d="M7,14A2,2 0 0,1 5,12A2,2 0 0,1 7,10A2,2 0 0,1 9,12A2,2 0 0,1 7,14M12.65,10C11.83,7.67 9.61,6 7, 6A6, 6 0 0, 0 1, 12A6, 6 0 0, 0 7, 18C9.61, 18 11.83, 16.33 12.65, 14H17V18H21V14H23V10H12.65Z" class="i pk" transform="translate(45, 48) scale(0.65)"></path></svg></g></g><text class="qdbd-link" x="10" y="20">www.quickdatabasediagrams.com</text></svg>